<svg width="651.465" height="142.414" viewBox="0 0 651.465 142.414" xmlns="http://www.w3.org/2000/svg"><g id="svgGroup" stroke-linecap="round" fill-rule="evenodd" font-size="9pt" stroke="#ffffff" stroke-width="0.25mm" fill="#ffffff" style="stroke:#ffffff;stroke-width:0.25mm;fill:#ffffff"><path d="M 368.945 104.297 Q 372.07 99.219 376.172 95.264 A 129.577 129.577 0 0 1 384.619 87.793 Q 388.965 84.277 393.262 80.957 Q 397.559 77.637 401.221 73.828 Q 404.883 70.02 407.52 65.381 A 29.066 29.066 0 0 0 410.167 58.991 A 37.122 37.122 0 0 0 411.133 54.59 A 2.407 2.407 0 0 0 411.13 54.477 Q 411.124 54.348 411.105 54.157 A 14.608 14.608 0 0 0 411.084 53.955 A 14.558 14.558 0 0 1 411.063 53.751 Q 411.038 53.497 411.036 53.353 A 1.805 1.805 0 0 1 411.035 53.32 A 108.854 108.854 0 0 1 409.22 55.394 Q 407.599 57.202 405.615 59.277 A 69.513 69.513 0 0 1 398.779 65.527 A 41.125 41.125 0 0 1 391.113 70.41 A 20.214 20.214 0 0 1 387.158 71.875 A 15.861 15.861 0 0 1 383.301 72.363 A 17.057 17.057 0 0 1 382.566 72.346 Q 381.804 72.313 380.811 72.217 A 13.505 13.505 0 0 1 377.832 71.582 Q 376.367 71.094 375.293 70.215 A 2.831 2.831 0 0 1 374.229 68.143 A 3.78 3.78 0 0 1 374.219 67.871 Q 374.219 66.602 374.902 63.965 A 54.506 54.506 0 0 1 375.679 61.273 Q 376.154 59.767 376.758 58.105 A 105.5 105.5 0 0 1 379.303 51.77 A 115.001 115.001 0 0 1 379.395 51.562 A 56.354 56.354 0 0 1 381.302 47.641 A 46.625 46.625 0 0 1 382.52 45.508 Q 383.903 43.23 385.252 41.63 A 19.72 19.72 0 0 1 385.791 41.016 Q 387.402 39.258 388.77 39.258 A 5.347 5.347 0 0 1 389.891 39.37 A 3.975 3.975 0 0 1 391.113 39.844 A 1.93 1.93 0 0 1 392.036 41.199 A 3.151 3.151 0 0 1 392.09 41.797 A 7.353 7.353 0 0 1 391.437 44.772 A 10.488 10.488 0 0 1 390.332 46.68 Q 388.574 49.121 386.524 51.904 Q 384.473 54.688 382.715 57.91 A 14.454 14.454 0 0 0 381.044 63.451 A 17.876 17.876 0 0 0 380.957 65.234 A 26.605 26.605 0 0 0 388.163 64.288 A 23.074 23.074 0 0 0 392.578 62.549 A 40.634 40.634 0 0 0 401.953 55.859 A 55.191 55.191 0 0 0 409.375 47.168 A 262.191 262.191 0 0 0 412.415 42.651 A 197.951 197.951 0 0 0 415.088 38.477 Q 416.8 35.724 418.189 33.594 A 152.532 152.532 0 0 1 419.385 31.787 Q 421.192 29.102 422.461 29.102 A 4.666 4.666 0 0 1 423.2 29.155 Q 424.391 29.347 424.658 30.225 A 7.082 7.082 0 0 1 424.88 31.226 Q 425 32.022 425 33.008 A 65.657 65.657 0 0 1 424.245 35.423 Q 423.535 37.555 422.559 40.088 A 437.908 437.908 0 0 0 420.188 46.387 A 496.525 496.525 0 0 0 419.385 48.584 A 165.009 165.009 0 0 0 416.455 57.422 Q 415.137 61.816 414.746 65.43 A 0.581 0.581 0 0 0 414.75 65.492 Q 414.76 65.582 414.795 65.723 Q 414.844 65.918 414.844 66.016 A 8.39 8.39 0 0 0 417.067 64.868 A 10.656 10.656 0 0 0 418.164 63.965 A 132.781 132.781 0 0 0 421.24 60.986 A 34.442 34.442 0 0 1 423.732 58.72 A 30.753 30.753 0 0 1 424.317 58.252 A 6.341 6.341 0 0 1 425.602 57.462 A 4.657 4.657 0 0 1 427.539 57.031 A 0.056 0.056 0 0 1 427.572 57.053 Q 427.716 57.202 428.272 58.398 A 3.328 3.328 0 0 1 428.57 59.606 Q 428.625 60.503 428.269 61.583 A 7.948 7.948 0 0 1 428.223 61.719 Q 427.344 62.402 425.049 64.063 A 707.85 707.85 0 0 1 422.693 65.759 A 816.789 816.789 0 0 1 420.215 67.529 A 200.182 200.182 0 0 0 417.749 69.312 A 172.552 172.552 0 0 0 415.43 71.045 Q 413.736 72.333 412.82 73.15 A 12.463 12.463 0 0 0 412.305 73.633 A 12.655 12.655 0 0 0 411.288 74.795 Q 410.788 75.435 410.276 76.223 A 29.398 29.398 0 0 0 409.473 77.539 A 62.201 62.201 0 0 0 408.008 80.237 A 80.992 80.992 0 0 0 406.543 83.252 A 142.887 142.887 0 0 0 404.373 88.205 A 161.217 161.217 0 0 0 403.662 89.941 Q 402.246 93.457 400.879 96.826 Q 399.512 100.195 398.194 103.076 A 81.421 81.421 0 0 1 397.258 105.054 Q 396.869 105.846 396.505 106.536 A 37.689 37.689 0 0 1 395.801 107.812 A 45.109 45.109 0 0 1 395.538 108.227 Q 395.112 108.892 394.319 110.099 A 554.631 554.631 0 0 1 393.799 110.889 A 302.06 302.06 0 0 1 392.212 113.269 A 378.573 378.573 0 0 1 390.479 115.82 A 324.52 324.52 0 0 1 387.824 119.638 A 286.037 286.037 0 0 1 386.963 120.85 A 94.267 94.267 0 0 1 386.16 121.957 Q 385.09 123.41 384.442 124.144 A 11.184 11.184 0 0 1 384.375 124.219 A 6.685 6.685 0 0 1 384.181 124.448 Q 383.697 124.999 382.447 126.287 A 195.072 195.072 0 0 1 382.227 126.514 A 353.472 353.472 0 0 1 380.359 128.418 A 483.496 483.496 0 0 1 378.272 130.518 Q 376.074 132.715 373.877 134.863 A 305.681 305.681 0 0 1 372.843 135.87 Q 371.842 136.84 371.114 137.523 A 69.529 69.529 0 0 1 370.508 138.086 A 46.81 46.81 0 0 1 369.873 138.449 Q 368.992 138.945 367.786 139.582 A 151.159 151.159 0 0 1 367.383 139.795 Q 365.43 140.82 363.33 141.504 A 20.078 20.078 0 0 1 360.362 142.234 A 17.535 17.535 0 0 1 359.229 142.383 A 6.505 6.505 0 0 1 358.701 142.413 Q 357.955 142.425 357.32 142.249 A 3.735 3.735 0 0 1 355.957 141.553 Q 354.962 140.749 354.597 139.104 A 8.426 8.426 0 0 1 354.444 138.135 Q 354.219 135.937 355.313 132.092 A 41.714 41.714 0 0 1 355.518 131.396 A 46.805 46.805 0 0 1 356.528 128.456 Q 357.758 125.2 359.777 120.994 A 149.228 149.228 0 0 1 360.059 120.41 Q 362.262 115.871 365.606 110.008 A 322.287 322.287 0 0 1 368.945 104.297 Z M 633.972 74.997 A 7.362 7.362 0 0 0 635.059 74.902 Q 636.334 74.902 638.072 74.556 A 30.575 30.575 0 0 0 639.746 74.17 Q 642.578 73.438 645.166 72.217 A 21.059 21.059 0 0 0 647.004 71.239 A 16.967 16.967 0 0 0 649.61 69.336 Q 651.465 67.676 651.465 65.82 Q 649.414 65.82 647.51 66.455 A 52.325 52.325 0 0 0 643.75 67.871 A 52.325 52.325 0 0 1 639.99 69.287 A 12.424 12.424 0 0 1 636.035 69.922 L 634.766 69.922 A 4.544 4.544 0 0 1 634.43 69.91 A 3.839 3.839 0 0 1 633.496 69.727 A 2.887 2.887 0 0 1 633.232 69.624 A 2.351 2.351 0 0 1 632.52 69.141 A 1.152 1.152 0 0 1 632.265 68.738 Q 632.129 68.389 632.129 67.871 A 6.808 6.808 0 0 1 632.122 67.562 Q 632.122 66.328 632.56 64.954 A 13.336 13.336 0 0 1 633.301 63.135 A 79.32 79.32 0 0 1 634.128 61.498 A 93.556 93.556 0 0 1 636.182 57.764 Q 637.793 54.98 639.258 52.246 Q 640.059 50.751 640.553 49.387 A 14.249 14.249 0 0 0 641.162 47.217 A 7.344 7.344 0 0 0 641.216 46.897 Q 641.286 46.421 641.286 45.968 A 5.101 5.101 0 0 0 640.479 43.164 Q 639.356 41.406 635.84 40.527 A 77.331 77.331 0 0 0 634.436 40.54 A 58.92 58.92 0 0 0 633.154 40.576 A 14.888 14.888 0 0 0 633.002 40.583 A 13.489 13.489 0 0 0 630.811 40.869 A 10.083 10.083 0 0 0 630.033 41.072 A 11.951 11.951 0 0 0 628.516 41.65 A 13.185 13.185 0 0 0 628.071 41.865 Q 627.072 42.369 625.879 43.164 A 82.421 82.421 0 0 1 625.891 43.136 Q 626.576 41.573 628.027 38.428 A 343.241 343.241 0 0 1 628.073 38.329 A 370.966 370.966 0 0 1 631.104 31.934 A 504.682 504.682 0 0 0 632.654 28.711 A 413.855 413.855 0 0 0 634.082 25.684 Q 635.108 23.486 635.694 22.278 A 64.743 64.743 0 0 1 636.035 21.582 Q 636.133 21.289 636.377 20.41 A 13.405 13.405 0 0 0 636.546 19.73 A 16.226 16.226 0 0 0 636.768 18.506 A 93.054 93.054 0 0 1 636.914 17.517 A 74.262 74.262 0 0 1 637.061 16.602 Q 637.207 15.723 637.207 15.332 A 6.494 6.494 0 0 0 637.132 15.186 Q 636.901 14.752 636.67 14.489 A 1.629 1.629 0 0 0 636.426 14.258 A 1.028 1.028 0 0 0 636.406 14.243 Q 636.128 14.045 635.663 13.988 A 3.363 3.363 0 0 0 635.254 13.965 A 2.642 2.642 0 0 0 634.934 13.983 Q 634.742 14.007 634.585 14.06 A 1.077 1.077 0 0 0 634.229 14.258 A 1.967 1.967 0 0 0 634.078 14.403 Q 633.877 14.616 633.634 14.972 A 10.249 10.249 0 0 0 633.399 15.332 Q 630.567 19.629 627.979 24.365 Q 625.391 29.102 622.949 33.936 A 634.544 634.544 0 0 1 618.067 43.408 A 176.717 176.717 0 0 1 616.541 46.245 A 149.681 149.681 0 0 1 613.184 52.051 A 10.117 10.117 0 0 1 612.876 52.485 Q 612.076 53.557 610.547 55.127 A 91.318 91.318 0 0 0 609.135 56.61 A 112.067 112.067 0 0 0 606.69 59.326 A 31.969 31.969 0 0 0 603.174 64.209 A 12.223 12.223 0 0 0 602.18 66.327 A 8.756 8.756 0 0 0 601.66 69.238 A 7.099 7.099 0 0 0 601.953 71.289 Q 602.246 72.266 603.711 72.266 A 4.093 4.093 0 0 0 604.241 72.232 A 3.224 3.224 0 0 0 605.274 71.924 Q 605.786 71.667 606.464 71.274 A 38.97 38.97 0 0 0 606.934 70.996 Q 607.52 67.969 609.619 64.795 A 39.294 39.294 0 0 1 610.224 63.907 A 43.264 43.264 0 0 1 614.551 58.691 Q 617.383 55.762 620.654 53.32 A 67.808 67.808 0 0 1 621.087 53 Q 624.114 50.778 626.758 49.365 A 27.297 27.297 0 0 1 626.772 49.357 Q 628.622 48.37 630.118 47.925 A 9.029 9.029 0 0 1 631.592 47.607 A 5.395 5.395 0 0 1 631.895 47.579 Q 633.628 47.466 634.033 48.682 A 1.757 1.757 0 0 1 634.099 48.953 Q 634.275 50.02 633.444 52.069 A 21.872 21.872 0 0 1 632.91 53.271 A 22.132 22.132 0 0 1 632.306 54.439 Q 631.193 56.452 629.252 59.16 A 104.358 104.358 0 0 1 627.051 62.109 A 7.003 7.003 0 0 0 626.046 65.78 A 8.29 8.29 0 0 0 626.074 66.455 A 10.231 10.231 0 0 0 627.442 70.85 A 9.119 9.119 0 0 0 630.615 74.072 A 6.197 6.197 0 0 0 633.901 74.997 Q 633.936 74.997 633.972 74.997 Z M 207.324 49.512 L 225.391 10.449 A 6.657 6.657 0 0 1 226.355 8.838 Q 226.978 8.057 227.881 7.324 Q 229.688 5.859 231.641 5.859 L 231.641 9.082 L 221.289 33.008 L 221.289 35.352 A 9.131 9.131 0 0 0 223.952 34.969 A 8.529 8.529 0 0 0 224.414 34.814 A 37.262 37.262 0 0 0 227.344 33.594 A 28.815 28.815 0 0 1 230.42 32.373 A 10.436 10.436 0 0 1 232.68 31.9 A 13.011 13.011 0 0 1 233.985 31.836 A 5.155 5.155 0 0 1 234.94 32.642 A 3.287 3.287 0 0 1 235.84 34.717 Q 235.929 36.28 235.12 38.089 A 11.367 11.367 0 0 1 234.961 38.428 A 17.998 17.998 0 0 1 233.636 40.687 A 23.682 23.682 0 0 1 232.276 42.48 A 68.538 68.538 0 0 1 228.711 46.436 A 61.226 61.226 0 0 1 226.67 48.439 A 47.657 47.657 0 0 1 225.147 49.805 A 397.27 397.27 0 0 0 224.344 50.494 Q 223.57 51.162 223.016 51.647 A 92.325 92.325 0 0 0 222.559 52.051 Q 221.475 52.918 220.525 53.384 A 6.422 6.422 0 0 1 219.873 53.662 Q 218.939 53.999 218.204 54.306 A 22.121 22.121 0 0 0 217.774 54.492 A 2.91 2.91 0 0 0 216.924 55.055 A 2.643 2.643 0 0 0 216.455 55.664 A 2.532 2.532 0 0 0 216.235 56.214 Q 216.016 56.989 216.016 58.301 A 8.334 8.334 0 0 0 216.23 60.244 A 5.881 5.881 0 0 0 217.481 62.744 A 9.258 9.258 0 0 0 219.933 64.748 A 11.743 11.743 0 0 0 221.338 65.43 A 18.662 18.662 0 0 0 224.558 66.402 A 23.467 23.467 0 0 0 226.709 66.748 A 52.637 52.637 0 0 0 232.715 67.09 Q 235.742 67.09 238.477 66.846 A 108.361 108.361 0 0 0 240.418 66.656 Q 241.371 66.553 242.206 66.443 A 54.269 54.269 0 0 0 243.164 66.309 L 244.336 67.48 A 8.086 8.086 0 0 1 243.278 68.646 Q 242.71 69.168 241.987 69.669 A 16.615 16.615 0 0 1 241.065 70.264 A 31.919 31.919 0 0 1 237.236 72.213 A 36.289 36.289 0 0 1 236.279 72.607 A 41.227 41.227 0 0 1 231.788 74.103 A 37.702 37.702 0 0 1 231.152 74.268 A 28.256 28.256 0 0 1 229.651 74.602 Q 228.095 74.902 226.953 74.902 Q 223.828 74.902 220.899 73.877 Q 217.969 72.852 215.527 70.996 Q 213.086 69.141 211.279 66.553 A 17.279 17.279 0 0 1 208.692 60.937 Q 207.52 62.5 206.738 64.453 A 32.438 32.438 0 0 1 204.981 68.164 A 11.273 11.273 0 0 1 203.607 70.132 A 9.61 9.61 0 0 1 202.637 71.094 A 4.706 4.706 0 0 1 200.614 72.094 Q 199.906 72.26 199.077 72.265 A 8.555 8.555 0 0 1 199.024 72.266 Q 197.553 72.266 196.819 71.867 A 1.632 1.632 0 0 1 196.485 71.631 A 1.613 1.613 0 0 1 196.117 71.089 Q 195.801 70.37 195.801 69.043 Q 195.801 67.01 196.792 64.611 A 18.514 18.514 0 0 1 197.119 63.867 Q 198.438 61.035 200.293 58.35 Q 202.149 55.664 204.102 53.32 A 431.175 431.175 0 0 1 205.036 52.203 Q 206.372 50.61 207.324 49.512 Z M 481.934 49.512 L 500 10.449 A 6.657 6.657 0 0 1 500.965 8.838 Q 501.587 8.057 502.49 7.324 Q 504.297 5.859 506.25 5.859 L 506.25 9.082 L 495.899 33.008 L 495.899 35.352 A 9.131 9.131 0 0 0 498.561 34.969 A 8.529 8.529 0 0 0 499.024 34.814 A 37.262 37.262 0 0 0 501.953 33.594 A 28.815 28.815 0 0 1 505.029 32.373 A 10.436 10.436 0 0 1 507.29 31.9 A 13.011 13.011 0 0 1 508.594 31.836 A 5.155 5.155 0 0 1 509.55 32.642 A 3.287 3.287 0 0 1 510.449 34.717 Q 510.539 36.28 509.729 38.089 A 11.367 11.367 0 0 1 509.57 38.428 A 17.998 17.998 0 0 1 508.246 40.687 A 23.682 23.682 0 0 1 506.885 42.48 A 68.538 68.538 0 0 1 503.32 46.436 A 61.226 61.226 0 0 1 501.279 48.439 A 47.657 47.657 0 0 1 499.756 49.805 A 397.27 397.27 0 0 0 498.953 50.494 Q 498.179 51.162 497.626 51.647 A 92.325 92.325 0 0 0 497.168 52.051 Q 496.085 52.918 495.134 53.384 A 6.422 6.422 0 0 1 494.483 53.662 Q 493.548 53.999 492.814 54.306 A 22.121 22.121 0 0 0 492.383 54.492 A 2.91 2.91 0 0 0 491.533 55.055 A 2.643 2.643 0 0 0 491.065 55.664 A 2.532 2.532 0 0 0 490.845 56.214 Q 490.625 56.989 490.625 58.301 A 8.334 8.334 0 0 0 490.84 60.244 A 5.881 5.881 0 0 0 492.09 62.744 A 9.258 9.258 0 0 0 494.543 64.748 A 11.743 11.743 0 0 0 495.947 65.43 A 18.662 18.662 0 0 0 499.167 66.402 A 23.467 23.467 0 0 0 501.319 66.748 A 52.637 52.637 0 0 0 507.324 67.09 Q 510.352 67.09 513.086 66.846 A 108.361 108.361 0 0 0 515.027 66.656 Q 515.981 66.553 516.815 66.443 A 54.269 54.269 0 0 0 517.774 66.309 L 518.945 67.48 A 8.086 8.086 0 0 1 517.887 68.646 Q 517.319 69.168 516.597 69.669 A 16.615 16.615 0 0 1 515.674 70.264 A 31.919 31.919 0 0 1 511.846 72.213 A 36.289 36.289 0 0 1 510.889 72.607 A 41.227 41.227 0 0 1 506.397 74.103 A 37.702 37.702 0 0 1 505.762 74.268 A 28.256 28.256 0 0 1 504.261 74.602 Q 502.704 74.902 501.563 74.902 Q 498.438 74.902 495.508 73.877 Q 492.578 72.852 490.137 70.996 Q 487.695 69.141 485.889 66.553 A 17.279 17.279 0 0 1 483.301 60.937 Q 482.129 62.5 481.348 64.453 A 32.438 32.438 0 0 1 479.59 68.164 A 11.273 11.273 0 0 1 478.217 70.132 A 9.61 9.61 0 0 1 477.246 71.094 A 4.706 4.706 0 0 1 475.224 72.094 Q 474.516 72.26 473.687 72.265 A 8.555 8.555 0 0 1 473.633 72.266 Q 472.163 72.266 471.428 71.867 A 1.632 1.632 0 0 1 471.094 71.631 A 1.613 1.613 0 0 1 470.726 71.089 Q 470.41 70.37 470.41 69.043 Q 470.41 67.01 471.402 64.611 A 18.514 18.514 0 0 1 471.729 63.867 Q 473.047 61.035 474.902 58.35 Q 476.758 55.664 478.711 53.32 A 431.175 431.175 0 0 1 479.645 52.203 Q 480.982 50.61 481.934 49.512 Z M 609.18 0 L 609.668 3.711 L 597.461 32.324 A 24.25 24.25 0 0 1 598.335 32.104 Q 598.728 32.013 599.169 31.921 A 48.568 48.568 0 0 1 600.098 31.738 A 587.502 587.502 0 0 1 603.272 31.152 A 161.129 161.129 0 0 1 606.017 30.677 A 145.865 145.865 0 0 1 606.397 30.615 Q 607.556 30.428 608.457 30.213 A 17.301 17.301 0 0 0 608.985 30.078 Q 609.068 30.078 609.438 30.042 A 41.427 41.427 0 0 0 609.57 30.029 Q 610.036 29.983 610.325 29.981 A 3.67 3.67 0 0 1 610.352 29.98 A 6.295 6.295 0 0 1 611.29 30.046 Q 612.042 30.16 612.598 30.469 A 2.174 2.174 0 0 1 613.192 30.971 Q 613.629 31.485 613.972 32.373 A 8.716 8.716 0 0 1 614.063 32.617 A 154.465 154.465 0 0 0 607.739 34.619 A 118.022 118.022 0 0 0 602.051 36.719 A 33.664 33.664 0 0 0 595.473 40.201 A 29.454 29.454 0 0 0 592.725 42.334 A 25.213 25.213 0 0 0 587.616 48.578 A 30.629 30.629 0 0 0 586.279 51.123 Q 583.789 56.445 582.813 64.746 A 27.877 27.877 0 0 0 582.861 66.431 A 21.482 21.482 0 0 0 583.008 67.969 Q 583.203 69.434 585.449 69.727 A 10.114 10.114 0 0 0 589.649 68.848 A 51.918 51.918 0 0 0 593.457 66.943 A 58.163 58.163 0 0 1 597.217 65.039 A 9.672 9.672 0 0 1 600.949 64.168 A 11.243 11.243 0 0 1 601.367 64.16 A 5.329 5.329 0 0 1 600.356 67.259 A 7.871 7.871 0 0 1 599.317 68.457 Q 597.266 70.41 594.385 71.875 A 28.992 28.992 0 0 1 588.477 74.121 A 33.093 33.093 0 0 1 586.69 74.533 Q 584.869 74.896 583.54 74.902 A 9.842 9.842 0 0 1 583.496 74.902 A 8.413 8.413 0 0 1 581.423 74.655 A 7.134 7.134 0 0 1 579.981 74.121 Q 578.418 73.34 577.393 72.021 Q 576.367 70.703 575.83 68.945 Q 575.293 67.188 575.293 65.332 A 15.705 15.705 0 0 1 576.175 60.199 A 17.955 17.955 0 0 1 576.367 59.668 A 50.538 50.538 0 0 1 578.906 54.053 Q 580.371 51.27 581.885 48.535 A 28.966 28.966 0 0 0 583.483 45.176 A 23.935 23.935 0 0 0 584.18 43.164 A 13.98 13.98 0 0 1 583.073 43.745 Q 581.932 44.275 581.036 44.381 A 4.115 4.115 0 0 1 581.006 44.385 Q 579.688 44.531 577.832 44.531 A 4.189 4.189 0 0 1 577.73 44.53 Q 577.445 44.522 576.611 44.482 Q 575.586 44.434 575.293 44.434 A 9.268 9.268 0 0 1 577.442 40.576 Q 579.004 38.867 581.006 37.646 Q 583.008 36.426 585.205 35.596 A 57.603 57.603 0 0 1 587.044 34.935 Q 587.89 34.648 588.657 34.421 A 33.352 33.352 0 0 1 589.16 34.277 A 57.273 57.273 0 0 0 592.951 27.365 A 50.528 50.528 0 0 0 593.945 25.049 Q 595.801 20.41 597.705 15.967 A 58.786 58.786 0 0 1 602.197 7.471 A 27.709 27.709 0 0 1 606.255 2.539 A 34.931 34.931 0 0 1 609.18 0 Z M 250.293 65.918 L 250.293 67.188 A 16.672 16.672 0 0 0 255.729 65.156 A 20.654 20.654 0 0 0 257.617 63.916 A 43.835 43.835 0 0 0 263.105 59.098 A 49.892 49.892 0 0 0 264.307 57.812 A 102.711 102.711 0 0 0 270.361 50.439 A 542.57 542.57 0 0 1 273.157 46.729 A 432.945 432.945 0 0 1 275.781 43.311 Q 277.825 40.678 279.678 38.773 A 34.783 34.783 0 0 1 280.567 37.891 A 11.333 11.333 0 0 1 281.807 36.852 Q 282.481 36.371 283.127 36.098 A 4.202 4.202 0 0 1 284.766 35.742 A 15.416 15.416 0 0 1 284.249 39.792 A 13.404 13.404 0 0 1 283.301 42.285 Q 281.836 45.215 280.127 48.047 Q 278.418 50.879 276.953 53.857 A 14.345 14.345 0 0 0 275.569 58.848 A 17.595 17.595 0 0 0 275.488 60.547 Q 275.488 62.109 277.393 63.33 A 17.981 17.981 0 0 0 279.967 64.688 A 22.584 22.584 0 0 0 281.787 65.381 A 44.635 44.635 0 0 0 285.44 66.434 A 38.902 38.902 0 0 0 286.621 66.699 A 108.603 108.603 0 0 0 287.639 66.907 Q 289.171 67.21 289.844 67.285 L 289.844 69.824 Q 287.598 69.922 284.277 69.873 A 35.449 35.449 0 0 1 277.637 69.141 Q 274.317 68.457 271.631 66.846 A 7.758 7.758 0 0 1 268.067 62.109 Q 265.527 63.77 263.184 66.016 A 64.659 64.659 0 0 1 258.35 70.215 A 30.71 30.71 0 0 1 253.125 73.535 A 13.111 13.111 0 0 1 247.269 74.902 A 15.129 15.129 0 0 1 247.168 74.902 A 3.935 3.935 0 0 1 244.193 73.585 A 5.489 5.489 0 0 1 243.897 73.242 Q 242.578 71.582 242.578 69.922 Q 242.578 68.686 243.204 66.582 A 31.034 31.034 0 0 1 243.457 65.771 A 49.757 49.757 0 0 1 244.47 62.976 A 66.566 66.566 0 0 1 245.752 59.961 A 81.898 81.898 0 0 1 248.42 54.618 A 91.56 91.56 0 0 1 248.975 53.613 A 73.242 73.242 0 0 1 251.238 49.836 A 59.665 59.665 0 0 1 252.637 47.754 Q 254.492 45.117 256.152 43.457 A 9.681 9.681 0 0 1 256.958 42.731 Q 258.13 41.797 259.082 41.797 Q 261.817 41.797 261.817 44.434 A 5.197 5.197 0 0 1 261.755 45.258 Q 261.679 45.728 261.511 46.117 A 2.909 2.909 0 0 1 261.377 46.387 A 9.105 9.105 0 0 1 260.352 47.852 A 16.084 16.084 0 0 1 259.082 49.17 A 5.972 5.972 0 0 0 258.039 50.461 A 6.834 6.834 0 0 0 257.91 50.684 Q 257.031 52.148 255.762 54.688 A 681.71 681.71 0 0 1 253.348 59.469 A 632.902 632.902 0 0 1 253.272 59.619 A 203.768 203.768 0 0 0 252.269 61.61 Q 251.817 62.52 251.426 63.335 A 113.83 113.83 0 0 0 251.172 63.867 Q 250.293 65.723 250.293 65.918 Z M 288.574 70.703 L 284.082 66.895 Q 284.961 66.895 285.791 66.504 Q 286.621 66.113 287.402 65.625 A 59.762 59.762 0 0 0 297.998 56.641 A 164.92 164.92 0 0 0 306.175 47.156 A 183.129 183.129 0 0 0 307.324 45.703 A 6.23 6.23 0 0 0 307.42 45.554 Q 307.655 45.177 308.246 44.172 A 246.246 246.246 0 0 0 308.35 43.994 A 90.273 90.273 0 0 0 309.188 42.531 Q 309.653 41.703 310.156 40.771 L 312.11 37.158 A 87.991 87.991 0 0 0 312.567 36.301 Q 313.058 35.368 313.388 34.678 A 23.747 23.747 0 0 0 313.574 34.277 A 16.258 16.258 0 0 0 313.891 33.549 Q 314.169 32.859 314.281 32.354 A 4.016 4.016 0 0 0 314.307 32.227 A 16.328 16.328 0 0 1 314.398 31.772 Q 314.488 31.357 314.579 31.071 A 4.281 4.281 0 0 1 314.6 31.006 A 1.141 1.141 0 0 1 314.795 30.642 A 1.026 1.026 0 0 1 315.137 30.371 A 1.148 1.148 0 0 1 315.368 30.29 Q 315.75 30.195 316.491 30.179 A 14.43 14.43 0 0 1 316.797 30.176 A 1.542 1.542 0 0 1 316.889 30.179 Q 317.111 30.193 317.633 30.261 A 39.29 39.29 0 0 1 317.725 30.273 A 12.457 12.457 0 0 1 317.981 30.31 Q 318.386 30.373 318.57 30.435 A 0.668 0.668 0 0 1 318.652 30.469 Q 319.743 32.735 320.618 34.568 A 869.978 869.978 0 0 1 320.899 35.156 Q 321.875 37.207 322.559 39.014 Q 323.242 40.82 323.584 42.676 A 20.245 20.245 0 0 1 323.861 44.887 A 26.324 26.324 0 0 1 323.926 46.777 A 120.176 120.176 0 0 1 321.48 52.529 A 133.386 133.386 0 0 1 321.094 53.369 A 81.325 81.325 0 0 0 319.411 57.249 A 65.37 65.37 0 0 0 318.457 59.766 Q 317.517 62.415 317.213 64.616 A 16.504 16.504 0 0 0 317.139 65.234 A 7.625 7.625 0 0 0 317.103 65.792 Q 317.081 66.648 317.27 67.365 A 3.992 3.992 0 0 0 318.213 69.092 A 3.961 3.961 0 0 0 319.574 70.018 Q 320.731 70.514 322.471 70.596 A 14.204 14.204 0 0 0 322.705 70.605 Q 325.879 70.703 331.738 68.945 Q 333.25 69.701 332.111 70.777 A 3.312 3.312 0 0 1 332.031 70.85 A 7.667 7.667 0 0 1 331.003 71.604 Q 329.872 72.308 328.174 72.949 A 35.135 35.135 0 0 1 324.567 74.084 A 42.574 42.574 0 0 1 322.51 74.561 A 23.941 23.941 0 0 1 320.879 74.842 Q 318.864 75.114 317.383 74.902 A 8.957 8.957 0 0 1 316.081 74.813 Q 315.388 74.711 314.811 74.493 A 4.713 4.713 0 0 1 314.307 74.268 A 5.337 5.337 0 0 1 312.697 73.008 A 5.106 5.106 0 0 1 312.354 72.559 A 7.385 7.385 0 0 1 311.396 70.537 A 8.56 8.56 0 0 1 311.279 70.117 A 11.633 11.633 0 0 1 310.938 67.285 A 12.269 12.269 0 0 1 311.839 62.574 A 11.822 11.822 0 0 1 312.158 61.865 A 44.578 44.578 0 0 1 314.844 57.129 A 65.376 65.376 0 0 0 317.529 52.637 Q 318.75 50.391 318.75 47.852 A 17.606 17.606 0 0 0 318.743 47.378 Q 318.738 47.166 318.727 46.931 A 34.844 34.844 0 0 0 318.701 46.436 A 12.822 12.822 0 0 0 318.506 44.824 A 3.236 3.236 0 0 0 318.286 44.104 A 2.619 2.619 0 0 0 317.92 43.506 A 1.475 1.475 0 0 0 317.454 43.12 A 1.414 1.414 0 0 0 316.797 42.969 A 0.651 0.651 0 0 0 316.74 42.972 Q 316.639 42.981 316.455 43.018 A 0.987 0.987 0 0 0 316.372 43.038 Q 316.242 43.076 316.217 43.134 A 0.074 0.074 0 0 0 316.211 43.164 A 74.448 74.448 0 0 1 314.912 44.872 Q 314.011 46.024 312.94 47.314 Q 311.035 49.609 308.887 51.855 A 274.193 274.193 0 0 1 305.202 55.637 A 246.878 246.878 0 0 1 304.688 56.152 A 69.799 69.799 0 0 1 303.204 57.594 Q 302.014 58.716 300.977 59.57 A 435.217 435.217 0 0 0 300.339 60.156 Q 299.628 60.811 298.696 61.673 A 1467.004 1467.004 0 0 0 297.803 62.5 A 408.575 408.575 0 0 1 293.799 66.162 A 13945.566 13945.566 0 0 0 292.141 67.659 Q 291.386 68.34 290.719 68.943 A 7610.529 7610.529 0 0 0 290.283 69.336 Q 288.77 70.703 288.574 70.703 Z M 0.103 62.435 A 10.809 10.809 0 0 0 0 63.965 A 12.626 12.626 0 0 0 0.191 66.215 A 9.151 9.151 0 0 0 1.074 68.848 Q 2.149 70.898 3.955 72.266 Q 5.762 73.633 8.154 74.268 A 19.149 19.149 0 0 0 13.086 74.902 A 26.998 26.998 0 0 0 22.266 73.291 A 25.686 25.686 0 0 0 30.274 68.701 Q 33.789 65.723 35.986 61.572 A 18.387 18.387 0 0 0 37.237 58.609 A 20.286 20.286 0 0 0 38.184 52.344 A 36.147 36.147 0 0 0 38.177 51.637 Q 38.148 50.128 37.988 48.975 A 9.379 9.379 0 0 0 37.901 48.452 A 8.061 8.061 0 0 0 37.207 46.387 A 7.729 7.729 0 0 0 36.752 45.598 A 8.937 8.937 0 0 0 35.596 44.189 A 23.144 23.144 0 0 0 35.086 43.695 Q 34.636 43.272 34.104 42.812 A 46.095 46.095 0 0 0 33.008 41.895 A 7.288 7.288 0 0 1 33.39 41.373 A 5.723 5.723 0 0 1 35.986 39.502 Q 37.793 38.867 39.551 38.184 A 10.294 10.294 0 0 0 40.396 37.811 A 8.528 8.528 0 0 0 42.529 36.328 Q 43.426 35.468 43.664 33.712 A 10.359 10.359 0 0 0 43.75 32.324 Q 41.797 32.324 38.135 33.252 A 44.377 44.377 0 0 0 37.161 33.51 A 48.948 48.948 0 0 0 30.762 35.791 Q 27.051 37.402 24.317 39.453 Q 21.582 41.504 21.582 43.75 A 3.745 3.745 0 0 0 21.619 44.283 Q 21.737 45.11 22.243 45.666 A 2.863 2.863 0 0 0 23.194 46.338 A 24.861 24.861 0 0 0 24.559 46.909 A 30.757 30.757 0 0 0 26.758 47.656 A 17.102 17.102 0 0 1 27.478 47.89 A 15.008 15.008 0 0 1 30.322 49.219 A 3.184 3.184 0 0 1 31.794 51.276 A 5.313 5.313 0 0 1 31.934 52.539 A 16.207 16.207 0 0 1 31.892 53.71 A 13.329 13.329 0 0 1 30.225 59.375 A 16.546 16.546 0 0 1 25.733 64.502 Q 22.949 66.602 19.531 67.676 A 22.999 22.999 0 0 1 12.598 68.75 A 12.948 12.948 0 0 1 10.798 68.633 Q 7.948 68.232 6.738 66.455 A 7.228 7.228 0 0 1 5.835 64.526 Q 5.268 62.706 5.268 60.102 A 25.016 25.016 0 0 1 5.274 59.57 A 1.018 1.018 0 0 0 5.271 59.57 Q 4.978 59.472 4.248 59.424 A 81.406 81.406 0 0 0 4.204 59.421 Q 3.51 59.375 3.32 59.375 A 5.986 5.986 0 0 0 2.562 59.42 Q 2.065 59.484 1.681 59.637 A 1.928 1.928 0 0 0 0.537 60.742 Q 0.235 61.511 0.103 62.435 Z M 116.504 40.625 L 119.141 38.086 Q 120.23 38.406 120.941 38.874 A 3.564 3.564 0 0 1 121.582 39.404 A 4.91 4.91 0 0 1 122.307 40.384 A 4.164 4.164 0 0 1 122.656 41.211 A 6.924 6.924 0 0 1 122.913 42.56 A 8.604 8.604 0 0 1 122.949 43.359 L 122.949 45.703 A 42.58 42.58 0 0 1 122.217 53.662 A 42.05 42.05 0 0 0 121.485 61.523 Q 121.485 61.719 121.533 62.451 A 66.849 66.849 0 0 1 121.55 62.707 Q 121.582 63.22 121.582 63.379 L 145.606 38.086 A 0.205 0.205 0 0 1 145.674 38.044 Q 145.811 37.988 146.143 37.988 L 146.777 37.988 Q 147.754 37.988 148.633 38.379 A 1.385 1.385 0 0 1 149.425 39.329 Q 149.512 39.641 149.512 40.039 A 0.311 0.311 0 0 1 149.507 40.094 Q 149.502 40.124 149.49 40.148 A 0.145 0.145 0 0 1 149.463 40.186 Q 149.423 40.226 149.416 40.3 A 0.343 0.343 0 0 0 149.414 40.332 L 149.414 40.625 Q 148.965 41.344 147.894 42.892 A 191.938 191.938 0 0 1 147.705 43.164 A 1545.894 1545.894 0 0 0 146.436 44.995 A 1942.09 1942.09 0 0 0 145.069 46.973 A 626.466 626.466 0 0 1 143.689 48.962 A 522.566 522.566 0 0 1 142.383 50.83 Q 141.339 52.316 140.823 53.042 A 123.779 123.779 0 0 1 140.625 53.32 Q 138.965 55.371 136.768 58.203 A 138.86 138.86 0 0 1 132.39 63.556 A 152.024 152.024 0 0 1 132.08 63.916 A 82.631 82.631 0 0 1 126.904 69.385 A 33.978 33.978 0 0 1 124.231 71.716 A 25.266 25.266 0 0 1 121.582 73.535 Q 121.094 73.828 120.166 74.316 Q 119.238 74.805 119.141 74.805 Q 118.067 74.805 117.139 74.17 A 6.916 6.916 0 0 1 115.718 72.863 A 8.005 8.005 0 0 1 115.479 72.559 A 10.083 10.083 0 0 1 114.561 71.098 A 8.864 8.864 0 0 1 114.307 70.557 Q 113.899 69.605 113.87 68.779 A 3.581 3.581 0 0 1 113.867 68.652 A 4.725 4.725 0 0 1 113.87 68.491 Q 113.88 68.225 113.916 67.822 A 51.649 51.649 0 0 0 113.933 67.636 Q 113.965 67.267 113.965 67.188 A 334.512 334.512 0 0 0 114.118 65.622 Q 114.34 63.289 114.61 60.165 A 993.217 993.217 0 0 0 114.649 59.717 A 489.942 489.942 0 0 1 115.262 53.098 A 436.446 436.446 0 0 1 115.479 50.977 A 1059.804 1059.804 0 0 0 115.788 47.985 Q 116.028 45.624 116.211 43.701 L 116.504 40.625 Z M 47.461 57.129 L 65.235 21.582 Q 65.625 20.801 66.748 19.385 A 79.048 79.048 0 0 1 68.385 17.392 A 92.423 92.423 0 0 1 69.19 16.455 A 57.231 57.231 0 0 1 71.414 14.04 A 51.221 51.221 0 0 1 71.826 13.623 A 87.285 87.285 0 0 1 72.458 12.997 Q 73.364 12.109 74.024 11.523 A 2.099 2.099 0 0 1 74.464 11.702 Q 74.785 11.879 74.97 12.159 A 1.328 1.328 0 0 1 75 12.207 Q 75.293 12.695 75.391 13.33 A 5.486 5.486 0 0 1 75.455 14.054 Q 75.456 14.105 75.456 14.155 A 4.767 4.767 0 0 1 75.44 14.551 A 18.719 18.719 0 0 0 75.418 14.832 Q 75.393 15.208 75.391 15.488 A 6.482 6.482 0 0 0 75.391 15.527 L 75.391 16.895 A 12.373 12.373 0 0 1 75.388 17.148 Q 75.378 17.636 75.326 17.743 A 0.042 0.042 0 0 1 75.293 17.773 Q 74.584 19.689 73.307 22.12 A 66.404 66.404 0 0 1 72.266 24.023 Q 70.215 27.637 67.676 31.738 A 914.764 914.764 0 0 0 63.785 38.083 A 1020.686 1020.686 0 0 0 62.451 40.283 A 134.843 134.843 0 0 0 58.125 47.984 A 122.528 122.528 0 0 0 57.569 49.072 A 77.14 77.14 0 0 0 55.181 54.242 A 62.798 62.798 0 0 0 53.955 57.422 Q 52.664 61.073 52.55 64.156 A 16.008 16.008 0 0 0 52.539 64.746 Q 52.539 66.504 53.565 67.529 A 14.402 14.402 0 0 0 55.762 69.336 A 44.251 44.251 0 0 1 57.437 70.508 A 38.722 38.722 0 0 1 57.959 70.898 A 2.5 2.5 0 0 1 58.968 72.714 A 3.374 3.374 0 0 1 58.985 73.047 A 1.55 1.55 0 0 1 58.867 73.664 Q 58.713 74.022 58.359 74.268 A 1.938 1.938 0 0 1 58.203 74.365 A 3.358 3.358 0 0 1 57.12 74.742 A 4.53 4.53 0 0 1 56.348 74.805 A 12.308 12.308 0 0 1 52.21 74.128 A 11.013 11.013 0 0 1 49.219 72.51 Q 46.192 70.215 46.192 65.918 A 9.278 9.278 0 0 1 46.201 65.53 Q 46.228 64.88 46.338 63.818 A 72.253 72.253 0 0 1 46.68 61.035 A 96.566 96.566 0 0 1 46.875 59.729 A 72.448 72.448 0 0 1 47.07 58.545 A 14.279 14.279 0 0 1 47.156 58.093 Q 47.283 57.482 47.41 57.22 A 0.78 0.78 0 0 1 47.461 57.129 Z M 351.27 57.129 L 369.043 21.582 Q 369.434 20.801 370.557 19.385 A 79.048 79.048 0 0 1 372.193 17.392 A 92.423 92.423 0 0 1 372.998 16.455 A 57.231 57.231 0 0 1 375.223 14.04 A 51.221 51.221 0 0 1 375.635 13.623 A 87.285 87.285 0 0 1 376.267 12.997 Q 377.173 12.109 377.832 11.523 A 2.099 2.099 0 0 1 378.273 11.702 Q 378.594 11.879 378.778 12.159 A 1.328 1.328 0 0 1 378.809 12.207 Q 379.102 12.695 379.199 13.33 A 5.486 5.486 0 0 1 379.263 14.054 Q 379.264 14.105 379.264 14.155 A 4.767 4.767 0 0 1 379.248 14.551 A 18.719 18.719 0 0 0 379.227 14.832 Q 379.201 15.208 379.199 15.488 A 6.482 6.482 0 0 0 379.199 15.527 L 379.199 16.895 A 12.373 12.373 0 0 1 379.197 17.148 Q 379.187 17.636 379.135 17.743 A 0.042 0.042 0 0 1 379.102 17.773 Q 378.392 19.689 377.116 22.12 A 66.404 66.404 0 0 1 376.074 24.023 Q 374.024 27.637 371.485 31.738 A 914.764 914.764 0 0 0 367.594 38.083 A 1020.686 1020.686 0 0 0 366.26 40.283 A 134.843 134.843 0 0 0 361.934 47.984 A 122.528 122.528 0 0 0 361.377 49.072 A 77.14 77.14 0 0 0 358.989 54.242 A 62.798 62.798 0 0 0 357.764 57.422 Q 356.472 61.073 356.359 64.156 A 16.008 16.008 0 0 0 356.348 64.746 Q 356.348 66.504 357.373 67.529 A 14.402 14.402 0 0 0 359.57 69.336 A 44.251 44.251 0 0 1 361.246 70.508 A 38.722 38.722 0 0 1 361.768 70.898 A 2.5 2.5 0 0 1 362.777 72.714 A 3.374 3.374 0 0 1 362.793 73.047 A 1.55 1.55 0 0 1 362.675 73.664 Q 362.521 74.022 362.167 74.268 A 1.938 1.938 0 0 1 362.012 74.365 A 3.358 3.358 0 0 1 360.928 74.742 A 4.53 4.53 0 0 1 360.156 74.805 A 12.308 12.308 0 0 1 356.019 74.128 A 11.013 11.013 0 0 1 353.027 72.51 Q 350 70.215 350 65.918 A 9.278 9.278 0 0 1 350.009 65.53 Q 350.037 64.88 350.147 63.818 A 72.253 72.253 0 0 1 350.488 61.035 A 96.566 96.566 0 0 1 350.684 59.729 A 72.448 72.448 0 0 1 350.879 58.545 A 14.279 14.279 0 0 1 350.965 58.093 Q 351.091 57.482 351.218 57.22 A 0.78 0.78 0 0 1 351.27 57.129 Z M 74.861 59.689 A 33.746 33.746 0 0 0 72.266 68.457 A 6.281 6.281 0 0 0 74.121 72.998 A 7.655 7.655 0 0 0 74.238 73.115 A 5.904 5.904 0 0 0 78.516 74.902 A 11.068 11.068 0 0 0 83.057 73.926 Q 85.254 72.949 87.158 71.484 A 30.944 30.944 0 0 0 90.772 68.213 Q 92.481 66.406 93.945 64.746 Q 93.945 66.309 94.483 67.92 A 10.908 10.908 0 0 0 94.534 68.07 A 9.683 9.683 0 0 0 95.996 70.801 A 7.841 7.841 0 0 0 98.34 72.852 A 5.724 5.724 0 0 0 99.659 73.399 A 6.746 6.746 0 0 0 101.465 73.633 Q 103.32 73.633 105.518 73.242 A 21.163 21.163 0 0 0 109.766 72.021 Q 111.817 71.191 113.672 70.02 A 12.061 12.061 0 0 0 114.125 69.719 A 10.364 10.364 0 0 0 116.699 67.187 A 6.01 6.01 0 0 1 116.571 67.186 Q 116.237 67.179 115.479 67.139 A 78.365 78.365 0 0 0 115.335 67.131 Q 114.741 67.101 114.389 67.093 A 10.008 10.008 0 0 0 114.16 67.09 A 14.879 14.879 0 0 0 109.717 67.773 Q 107.52 68.457 105.176 68.457 A 8.768 8.768 0 0 1 104.07 68.391 Q 102.11 68.142 101.221 66.943 A 4.907 4.907 0 0 1 100.754 66.172 Q 100.098 64.831 100.098 62.891 Q 100.098 60.449 101.123 58.301 Q 102.149 56.152 103.369 54.102 A 63.841 63.841 0 0 0 105.615 50 Q 106.641 47.949 106.641 45.703 A 11.268 11.268 0 0 0 106.034 44.835 A 8.688 8.688 0 0 0 101.807 41.797 Q 99.745 41.121 97.426 41.217 A 15.504 15.504 0 0 0 95.313 41.455 A 18.661 18.661 0 0 0 91.522 42.584 A 25.152 25.152 0 0 0 88.086 44.336 A 28.956 28.956 0 0 0 86.264 45.535 A 32.315 32.315 0 0 0 81.201 50.049 A 34.146 34.146 0 0 0 78.924 52.821 A 40.609 40.609 0 0 0 75.586 58.203 A 31.297 31.297 0 0 0 74.861 59.689 Z M 156.209 59.689 A 33.746 33.746 0 0 0 153.613 68.457 A 6.281 6.281 0 0 0 155.469 72.998 A 7.655 7.655 0 0 0 155.586 73.115 A 5.904 5.904 0 0 0 159.863 74.902 A 11.068 11.068 0 0 0 164.404 73.926 Q 166.602 72.949 168.506 71.484 A 30.944 30.944 0 0 0 172.119 68.213 Q 173.828 66.406 175.293 64.746 Q 175.293 66.309 175.83 67.92 A 10.908 10.908 0 0 0 175.882 68.07 A 9.683 9.683 0 0 0 177.344 70.801 A 7.841 7.841 0 0 0 179.688 72.852 A 5.724 5.724 0 0 0 181.007 73.399 A 6.746 6.746 0 0 0 182.813 73.633 Q 184.668 73.633 186.865 73.242 A 21.163 21.163 0 0 0 191.113 72.021 Q 193.164 71.191 195.02 70.02 A 12.061 12.061 0 0 0 195.473 69.719 A 10.364 10.364 0 0 0 198.047 67.187 A 6.01 6.01 0 0 1 197.918 67.186 Q 197.584 67.179 196.826 67.139 A 78.365 78.365 0 0 0 196.683 67.131 Q 196.089 67.101 195.737 67.093 A 10.008 10.008 0 0 0 195.508 67.09 A 14.879 14.879 0 0 0 191.065 67.773 Q 188.867 68.457 186.524 68.457 A 8.768 8.768 0 0 1 185.418 68.391 Q 183.458 68.142 182.569 66.943 A 4.907 4.907 0 0 1 182.101 66.172 Q 181.445 64.831 181.445 62.891 Q 181.445 60.449 182.471 58.301 Q 183.496 56.152 184.717 54.102 A 63.841 63.841 0 0 0 186.963 50 Q 187.988 47.949 187.988 45.703 A 11.268 11.268 0 0 0 187.381 44.835 A 8.688 8.688 0 0 0 183.154 41.797 Q 181.093 41.121 178.773 41.217 A 15.504 15.504 0 0 0 176.66 41.455 A 18.661 18.661 0 0 0 172.87 42.584 A 25.152 25.152 0 0 0 169.434 44.336 A 28.956 28.956 0 0 0 167.612 45.535 A 32.315 32.315 0 0 0 162.549 50.049 A 34.146 34.146 0 0 0 160.272 52.821 A 40.609 40.609 0 0 0 156.934 58.203 A 31.297 31.297 0 0 0 156.209 59.689 Z M 430.818 59.689 A 33.746 33.746 0 0 0 428.223 68.457 A 6.281 6.281 0 0 0 430.078 72.998 A 7.655 7.655 0 0 0 430.195 73.115 A 5.904 5.904 0 0 0 434.473 74.902 A 11.068 11.068 0 0 0 439.014 73.926 Q 441.211 72.949 443.115 71.484 A 30.944 30.944 0 0 0 446.729 68.213 Q 448.438 66.406 449.902 64.746 Q 449.902 66.309 450.44 67.92 A 10.908 10.908 0 0 0 450.491 68.07 A 9.683 9.683 0 0 0 451.953 70.801 A 7.841 7.841 0 0 0 454.297 72.852 A 5.724 5.724 0 0 0 455.616 73.399 A 6.746 6.746 0 0 0 457.422 73.633 Q 459.277 73.633 461.475 73.242 A 21.163 21.163 0 0 0 465.723 72.021 Q 467.774 71.191 469.629 70.02 A 12.061 12.061 0 0 0 470.082 69.719 A 10.364 10.364 0 0 0 472.656 67.187 A 6.01 6.01 0 0 1 472.528 67.186 Q 472.194 67.179 471.436 67.139 A 78.365 78.365 0 0 0 471.292 67.131 Q 470.698 67.101 470.346 67.093 A 10.008 10.008 0 0 0 470.117 67.09 A 14.879 14.879 0 0 0 465.674 67.773 Q 463.477 68.457 461.133 68.457 A 8.768 8.768 0 0 1 460.027 68.391 Q 458.067 68.142 457.178 66.943 A 4.907 4.907 0 0 1 456.711 66.172 Q 456.055 64.831 456.055 62.891 Q 456.055 60.449 457.08 58.301 Q 458.106 56.152 459.326 54.102 A 63.841 63.841 0 0 0 461.572 50 Q 462.598 47.949 462.598 45.703 A 11.268 11.268 0 0 0 461.991 44.835 A 8.688 8.688 0 0 0 457.764 41.797 Q 455.702 41.121 453.383 41.217 A 15.504 15.504 0 0 0 451.27 41.455 A 18.661 18.661 0 0 0 447.479 42.584 A 25.152 25.152 0 0 0 444.043 44.336 A 28.956 28.956 0 0 0 442.221 45.535 A 32.315 32.315 0 0 0 437.158 50.049 A 34.146 34.146 0 0 0 434.881 52.821 A 40.609 40.609 0 0 0 431.543 58.203 A 31.297 31.297 0 0 0 430.818 59.689 Z M 542.774 69.727 Q 541.113 66.016 541.309 62.451 A 18.937 18.937 0 0 1 542.92 55.713 Q 544.336 52.539 546.631 49.951 A 30.59 30.59 0 0 1 551.071 45.822 A 28.204 28.204 0 0 1 551.563 45.459 Q 554.199 43.555 556.885 42.578 A 16.277 16.277 0 0 1 558.67 42.036 Q 559.959 41.729 561.075 41.729 A 7.66 7.66 0 0 1 561.621 41.748 A 5.364 5.364 0 0 1 563.116 42.059 A 4.141 4.141 0 0 1 564.844 43.262 A 3.406 3.406 0 0 1 565.517 44.538 Q 565.865 45.724 565.625 47.461 Q 565.625 51.27 563.233 54.102 A 35.32 35.32 0 0 1 557.959 59.18 A 501.613 501.613 0 0 1 555.2 61.316 A 373.177 373.177 0 0 1 552.686 63.232 Q 550.832 64.632 550.414 65.886 A 2.257 2.257 0 0 0 550.293 66.602 A 1.311 1.311 0 0 0 550.8 67.644 Q 551.014 67.824 551.319 67.969 A 8.162 8.162 0 0 0 552.504 68.419 A 11.074 11.074 0 0 0 553.711 68.701 A 26.139 26.139 0 0 0 556.445 69.043 A 54.036 54.036 0 0 1 557.08 69.092 Q 557.866 69.157 558.301 69.223 A 6.381 6.381 0 0 1 558.399 69.238 Q 567.578 67.285 572.168 66.846 A 55.781 55.781 0 0 1 573.391 66.741 Q 576.636 66.503 577.75 66.873 A 1.784 1.784 0 0 1 577.93 66.943 Q 579.102 67.48 577.49 68.604 A 11.978 11.978 0 0 1 576.325 69.31 Q 574.848 70.106 572.559 70.947 A 49.947 49.947 0 0 1 569.21 72.038 Q 567.432 72.552 565.423 73.014 A 84.103 84.103 0 0 1 564.844 73.145 A 47.461 47.461 0 0 1 556.152 74.268 Q 553.082 74.372 550.335 73.903 A 23.948 23.948 0 0 1 548.194 73.438 A 10.717 10.717 0 0 1 545.555 72.367 A 8.077 8.077 0 0 1 542.774 69.727 Z M 399.61 83.301 A 0.81 0.81 0 0 0 399.497 83.31 Q 399.309 83.337 398.989 83.442 A 6.836 6.836 0 0 0 398.975 83.447 Q 398.535 83.594 398.34 83.691 Q 398.145 83.887 397.461 84.375 A 289.652 289.652 0 0 1 396.741 84.888 A 385.004 385.004 0 0 1 395.947 85.449 A 33.538 33.538 0 0 0 394.757 86.328 A 29.733 29.733 0 0 0 394.385 86.621 Q 393.71 87.161 393.409 87.452 A 3.83 3.83 0 0 0 393.36 87.5 A 33.877 33.877 0 0 0 391.223 89.171 Q 389.321 90.776 387.11 93.018 A 148.911 148.911 0 0 0 383.533 96.777 A 183.101 183.101 0 0 0 379.834 100.928 A 165.072 165.072 0 0 0 372.461 110.107 A 183.36 183.36 0 0 0 368.231 115.997 A 150.565 150.565 0 0 0 365.967 119.385 Q 363.39 123.359 361.712 126.748 A 50.23 50.23 0 0 0 361.328 127.539 Q 359.57 131.25 359.473 133.496 A 4.829 4.829 0 0 0 359.468 133.706 Q 359.468 135.544 360.957 136.036 A 3.163 3.163 0 0 0 361.328 136.133 Q 362.88 136.443 366.16 135.088 A 36.183 36.183 0 0 0 367.969 134.277 A 76.658 76.658 0 0 0 368.509 133.786 Q 369.12 133.226 369.951 132.445 A 319.663 319.663 0 0 0 370.752 131.689 Q 372.559 129.98 374.365 128.174 A 330.31 330.31 0 0 0 376.087 126.44 A 247.397 247.397 0 0 0 377.637 124.854 A 115.793 115.793 0 0 0 378.145 124.325 Q 379.157 123.267 379.395 122.949 Q 379.865 122.291 380.878 120.909 A 606.406 606.406 0 0 1 380.957 120.801 A 106.644 106.644 0 0 0 382.08 119.238 A 146.733 146.733 0 0 0 383.301 117.48 A 378.545 378.545 0 0 0 385.26 114.587 A 433.937 433.937 0 0 0 385.938 113.574 A 272.128 272.128 0 0 0 387.906 110.58 A 238.99 238.99 0 0 0 388.526 109.619 Q 389.746 107.715 390.674 106.25 Q 391.384 105.128 391.78 104.408 A 12.061 12.061 0 0 0 391.992 104.004 Q 392.665 102.808 393.596 100.839 A 115.032 115.032 0 0 0 394.19 99.561 A 99.046 99.046 0 0 0 396.68 93.604 A 104.358 104.358 0 0 0 398.153 89.489 A 89.149 89.149 0 0 0 398.731 87.695 A 30.545 30.545 0 0 0 399.155 86.203 Q 399.512 84.806 399.589 83.814 A 6.681 6.681 0 0 0 399.61 83.301 Z M 326.758 68.457 Q 326.758 67.09 327.051 66.064 Q 327.316 65.138 327.979 63.694 A 36.873 36.873 0 0 1 328.125 63.379 A 56.086 56.086 0 0 0 328.507 62.825 Q 329.062 62.011 330.003 60.593 A 562.121 562.121 0 0 0 330.615 59.668 A 15993.487 15993.487 0 0 1 332.471 56.86 A 18619.463 18619.463 0 0 1 334.424 53.906 A 946.952 946.952 0 0 1 336.377 50.964 A 797.54 797.54 0 0 1 338.233 48.193 Q 340.039 45.508 340.723 44.434 A 10.693 10.693 0 0 1 341.076 43.95 Q 341.601 43.277 341.956 43.112 A 0.598 0.598 0 0 1 342.09 43.066 A 3.175 3.175 0 0 1 342.367 43.026 Q 342.774 42.982 343.483 42.972 A 32.006 32.006 0 0 1 343.945 42.969 Q 344.824 42.969 345.85 43.066 Q 346.875 43.164 347.168 44.434 A 27.375 27.375 0 0 1 343.506 50.732 A 571.599 571.599 0 0 0 339.014 56.641 Q 336.817 59.57 335.156 62.646 A 13.669 13.669 0 0 0 333.496 69.238 A 4.625 4.625 0 0 1 333.719 69.244 Q 334.094 69.263 334.717 69.336 A 92.721 92.721 0 0 0 335.584 69.434 A 117.943 117.943 0 0 0 336.524 69.531 A 117.943 117.943 0 0 1 337.464 69.629 A 92.721 92.721 0 0 1 338.33 69.727 A 8.357 8.357 0 0 0 338.626 69.756 Q 339.234 69.806 339.551 69.727 A 11.073 11.073 0 0 0 339.896 69.662 Q 340.428 69.556 341.334 69.34 A 92.871 92.871 0 0 0 341.553 69.287 A 2869.544 2869.544 0 0 0 343.018 68.933 A 3482.97 3482.97 0 0 0 344.58 68.555 A 144.385 144.385 0 0 0 346.915 67.969 A 126.101 126.101 0 0 0 347.656 67.773 Q 349.005 67.414 349.609 67.22 A 9.728 9.728 0 0 0 349.707 67.188 A 2.407 2.407 0 0 0 349.71 67.3 Q 349.716 67.43 349.735 67.621 A 14.608 14.608 0 0 0 349.756 67.822 A 14.558 14.558 0 0 1 349.777 68.027 Q 349.802 68.281 349.805 68.425 A 1.805 1.805 0 0 1 349.805 68.457 A 3.65 3.65 0 0 1 348.519 71.266 A 5.457 5.457 0 0 1 347.998 71.68 A 13.911 13.911 0 0 1 345.237 73.171 A 16.987 16.987 0 0 1 343.799 73.682 Q 341.406 74.414 338.916 74.658 A 78.642 78.642 0 0 1 337.741 74.765 Q 336.473 74.87 335.574 74.895 A 18.86 18.86 0 0 1 335.059 74.902 A 13.417 13.417 0 0 1 332.269 74.602 A 14.817 14.817 0 0 1 332.08 74.561 A 8.373 8.373 0 0 1 330.241 73.923 A 7.309 7.309 0 0 1 329.395 73.437 A 6.221 6.221 0 0 1 327.49 71.436 Q 326.758 70.215 326.758 68.457 Z M 78.711 65.43 Q 78.711 66.211 78.76 67.188 Q 78.809 68.164 79.981 68.457 Q 81.754 68.031 83.889 66.858 A 28.77 28.77 0 0 0 85.547 65.869 Q 88.672 63.867 91.406 61.182 A 29.602 29.602 0 0 0 95.519 56.183 A 27.228 27.228 0 0 0 95.996 55.42 A 14.616 14.616 0 0 0 97.18 53.007 Q 97.747 51.495 97.835 50.046 A 8.765 8.765 0 0 0 97.852 49.512 A 2.407 2.407 0 0 0 97.849 49.399 Q 97.843 49.27 97.824 49.078 A 14.608 14.608 0 0 0 97.803 48.877 A 14.558 14.558 0 0 1 97.782 48.672 Q 97.757 48.419 97.754 48.275 A 1.805 1.805 0 0 1 97.754 48.242 A 17.382 17.382 0 0 0 92.613 49.044 A 20.804 20.804 0 0 0 91.016 49.609 A 21.263 21.263 0 0 0 84.863 53.369 Q 82.129 55.762 80.42 58.887 A 13.45 13.45 0 0 0 78.711 65.43 Z M 160.059 65.43 Q 160.059 66.211 160.108 67.188 Q 160.156 68.164 161.328 68.457 Q 163.102 68.031 165.237 66.858 A 28.77 28.77 0 0 0 166.895 65.869 Q 170.02 63.867 172.754 61.182 A 29.602 29.602 0 0 0 176.866 56.183 A 27.228 27.228 0 0 0 177.344 55.42 A 14.616 14.616 0 0 0 178.528 53.007 Q 179.094 51.495 179.183 50.046 A 8.765 8.765 0 0 0 179.199 49.512 A 2.407 2.407 0 0 0 179.196 49.399 Q 179.19 49.27 179.172 49.078 A 14.608 14.608 0 0 0 179.151 48.877 A 14.558 14.558 0 0 1 179.129 48.672 Q 179.105 48.419 179.102 48.275 A 1.805 1.805 0 0 1 179.102 48.242 A 17.382 17.382 0 0 0 173.96 49.044 A 20.804 20.804 0 0 0 172.363 49.609 A 21.263 21.263 0 0 0 166.211 53.369 Q 163.477 55.762 161.768 58.887 A 13.45 13.45 0 0 0 160.059 65.43 Z M 434.668 65.43 Q 434.668 66.211 434.717 67.188 Q 434.766 68.164 435.938 68.457 Q 437.711 68.031 439.846 66.858 A 28.77 28.77 0 0 0 441.504 65.869 Q 444.629 63.867 447.363 61.182 A 29.602 29.602 0 0 0 451.476 56.183 A 27.228 27.228 0 0 0 451.953 55.42 A 14.616 14.616 0 0 0 453.137 53.007 Q 453.704 51.495 453.792 50.046 A 8.765 8.765 0 0 0 453.809 49.512 A 2.407 2.407 0 0 0 453.806 49.399 Q 453.8 49.27 453.781 49.078 A 14.608 14.608 0 0 0 453.76 48.877 A 14.558 14.558 0 0 1 453.739 48.672 Q 453.714 48.419 453.711 48.275 A 1.805 1.805 0 0 1 453.711 48.242 A 17.382 17.382 0 0 0 448.57 49.044 A 20.804 20.804 0 0 0 446.973 49.609 A 21.263 21.263 0 0 0 440.82 53.369 Q 438.086 55.762 436.377 58.887 A 13.45 13.45 0 0 0 434.668 65.43 Z M 549.414 58.398 L 549.707 58.398 A 3.912 3.912 0 0 0 550.835 58.22 Q 551.341 58.067 551.891 57.784 A 9.699 9.699 0 0 0 552.832 57.227 A 17.612 17.612 0 0 0 555.46 55.068 A 20.406 20.406 0 0 0 556.152 54.346 A 21.009 21.009 0 0 0 558.351 51.5 A 18.853 18.853 0 0 0 558.789 50.781 Q 559.863 48.926 559.863 47.461 A 6.992 6.992 0 0 0 556.207 48.502 A 8.294 8.294 0 0 0 556.152 48.535 A 13.778 13.778 0 0 0 552.979 51.221 Q 551.563 52.832 550.586 54.736 Q 549.617 56.625 549.129 58.274 A 15.106 15.106 0 0 0 549.121 58.301 A 1.728 1.728 0 0 0 549.213 58.344 Q 549.341 58.398 549.414 58.398 Z M 529.102 73.535 L 529.102 66.797 L 531.592 66.797 Q 533.106 66.797 534.57 67.09 A 8.348 8.348 0 0 1 535.977 67.496 A 6.544 6.544 0 0 1 537.11 68.066 A 2.234 2.234 0 0 1 538.146 69.693 A 3.455 3.455 0 0 1 538.184 70.215 A 6.384 6.384 0 0 1 538.032 71.646 Q 537.763 72.82 537.012 73.633 A 3.808 3.808 0 0 1 535.053 74.752 Q 534.433 74.902 533.697 74.902 A 6.929 6.929 0 0 1 533.692 74.902 L 532.666 74.902 Q 531.934 74.902 531.152 74.756 A 6.491 6.491 0 0 1 530.255 74.523 A 5.362 5.362 0 0 1 529.736 74.316 Q 529.102 74.023 529.102 73.535 Z M 217.481 46.289 L 217.481 46.973 A 40.695 40.695 0 0 1 217.886 46.802 Q 218.517 46.54 219.609 46.102 A 347.266 347.266 0 0 1 219.873 45.996 A 26.967 26.967 0 0 0 222.048 45.008 A 32.354 32.354 0 0 0 223.389 44.287 A 15.055 15.055 0 0 0 226.035 42.395 A 13.688 13.688 0 0 0 226.563 41.895 A 5.457 5.457 0 0 0 227.355 40.909 A 3.647 3.647 0 0 0 227.93 38.965 A 3.373 3.373 0 0 0 227.375 39.017 Q 226.563 39.154 225.293 39.648 A 21.504 21.504 0 0 0 222.547 40.955 A 24.661 24.661 0 0 0 221.777 41.406 A 17.646 17.646 0 0 0 219.862 42.751 A 14.366 14.366 0 0 0 218.75 43.75 A 5.723 5.723 0 0 0 218.094 44.524 Q 217.773 44.986 217.62 45.448 A 2.661 2.661 0 0 0 217.481 46.289 Z M 492.09 46.289 L 492.09 46.973 A 40.695 40.695 0 0 1 492.496 46.802 Q 493.126 46.54 494.219 46.102 A 347.266 347.266 0 0 1 494.483 45.996 A 26.967 26.967 0 0 0 496.657 45.008 A 32.354 32.354 0 0 0 497.998 44.287 A 15.055 15.055 0 0 0 500.644 42.395 A 13.688 13.688 0 0 0 501.172 41.895 A 5.457 5.457 0 0 0 501.964 40.909 A 3.647 3.647 0 0 0 502.539 38.965 A 3.373 3.373 0 0 0 501.984 39.017 Q 501.173 39.154 499.902 39.648 A 21.504 21.504 0 0 0 497.156 40.955 A 24.661 24.661 0 0 0 496.387 41.406 A 17.646 17.646 0 0 0 494.472 42.751 A 14.366 14.366 0 0 0 493.36 43.75 A 5.723 5.723 0 0 0 492.704 44.524 Q 492.382 44.986 492.229 45.448 A 2.661 2.661 0 0 0 492.09 46.289 Z M 355.176 11.23 Q 356.445 11.23 357.52 11.328 A 6.189 6.189 0 0 1 358.448 11.48 A 4.472 4.472 0 0 1 359.375 11.816 A 3.127 3.127 0 0 1 360.629 12.964 A 3.711 3.711 0 0 1 360.645 12.988 Q 361.017 13.584 361.105 14.519 A 6.562 6.562 0 0 1 361.133 15.137 L 361.133 16.406 A 5.845 5.845 0 0 1 360.986 17.725 A 2.588 2.588 0 0 1 360.744 18.377 A 2.227 2.227 0 0 1 360.449 18.799 Q 360.059 19.238 359.18 19.238 A 3.094 3.094 0 0 1 358.122 19.064 A 2.669 2.669 0 0 1 356.983 18.262 A 6.155 6.155 0 0 1 355.839 16.211 A 7.147 7.147 0 0 1 355.762 15.967 A 12.581 12.581 0 0 1 355.274 13.281 Q 355.199 12.234 355.181 11.588 A 13.313 13.313 0 0 1 355.176 11.23 Z" vector-effect="non-scaling-stroke"/></g></svg>